{"title":"Super.Cub.2008.DVDRip.XviD-CoWRY","uid":5188969,"size":747966464,"categoryP":"video","categoryS":"movies","magnet":"?xt=urn:btih:430e7c487db4e8c11030db788243bb8a7ff24297&amp;dn=Super.Cub.2008.DVDRip.XviD-CoWRY&amp;tr=udp%3A%2F%2Ftracker.openbittorrent.com%3A80&amp;tr=udp%3A%2F%2Fopen.demonii.com%3A1337&amp;tr=udp%3A%2F%2Ftracker.coppersurfer.tk%3A6969&amp;tr=udp%3A%2F%2Fexodus.desync.com%3A6969","seeders":0,"leechers":1,"uploader":"JoeBonanno","files":7,"time":1259596041,"description":"      Format : AVI\n      Format/Info : Audio Video Interleave\n      File size : 698 MiB\n      Duration : 1h 21mn\n      Overall bit rate : 1 191 Kbps\n      Writing application : VirtualDubMod 1.5.10.1 (build 2439/release)\n      Writing library : VirtualDubMod build 2439/release\n  \n\n***************\n Video\n      Format : MPEG-4 Visual\n      Format profile : AdvancedSimple@L5\n      Format settings, BVOP : Yes\n      Format settings, QPel : No\n      Format settings, GMC : No warppoints\n      Format settings, Matrix : Default (MPEG)\n      Muxing mode : Packed bitstream\n      Codec ID : XVID\n      Codec ID/Hint : XviD\n      Duration : 1h 21mn\n      Bit rate : 1 054 Kbps\n      Width : 640 pixels\n      Height : 272 pixels\n      Display aspect ratio : 2.35:1\n      Frame rate : 23.976 fps\n      Resolution : 24 bits\n      Colorimetry : 4:2:0\n      Scan type : Progressive\n      Bits/(Pixel*Frame) : 0.253\n      Stream size : 618 MiB (89%)\n      Writing library : XviD 1.2.1 (UTC 2008-12-04)\n   \n****************\nAudio\n      Format : MPEG Audio\n      Format version : Version 1\n      Format profile : Layer 3\n      Codec ID : 55\n      Codec ID/Hint : MP3\n      Duration : 1h 21mn\n      Bit rate mode : Variable\n      Bit rate : 124 Kbps\n      Nominal bit rate : 128 Kbps\n      Channel(s) : 2 channels\n      Sampling rate : 48.0 KHz\n      Resolution : 16 bits\n      Stream size : 72.8 MiB (10%)\n      Alignment : Aligned on interleaves\n      Interleave, duration : 24 ms (0.58 video frame)\n      Interleave, preload duration : 157 ms\n      Writing library : LAME3.90.\n      Encoding settings : -m j -V 4 -q 2 -lowpass 17.6 --abr 128","torrent":{"xt":"urn:btih:430e7c487db4e8c11030db788243bb8a7ff24297","amp;dn":"Super.Cub.2008.DVDRip.XviD-CoWRY","amp;tr":["udp%3A%2F%2Ftracker.openbittorrent.com%3A80","udp%3A%2F%2Fopen.demonii.com%3A1337","udp%3A%2F%2Ftracker.coppersurfer.tk%3A6969","udp%3A%2F%2Fexodus.desync.com%3A6969"],"infoHash":"430e7c487db4e8c11030db788243bb8a7ff24297","infoHashBuffer":{"type":"Buffer","data":[67,14,124,72,125,180,232,193,16,48,219,120,130,67,187,138,127,242,66,151]},"announce":[],"urlList":[]}}